<svg width="118" height="30" viewBox="0 0 118 30" fill="none" xmlns="http://www.w3.org/2000/svg">
<path fill-rule="evenodd" clip-rule="evenodd" d="M27.3636 0C27.4641 0.0432664 27.6095 0.0448116 27.7054 0.0942589C27.3589 4.47189 24.6489 6.65375 19.6866 6.32153V25.7311C23.2443 24.8983 25.478 22.6051 27.147 19.8315C27.2893 19.884 27.4254 19.9427 27.5647 19.9999C26.4819 24.5259 24.0348 27.9794 19.8104 29.3732C17.702 30.0701 14.6919 30.2046 12.1953 29.6823C10.0602 29.255 8.05951 28.3206 6.36215 26.958C4.01869 25.059 2.32954 22.3795 2.05111 18.4207C1.96154 17.1109 2.06578 15.7952 2.36048 14.5159C2.88021 12.2428 3.94753 10.3824 5.21594 8.79853C6.48435 7.21467 8.03892 5.88268 9.66619 4.69286C7.61818 4.2741 5.33195 4.42708 3.80832 5.22751C2.52599 5.88114 1.52054 6.93653 0.714639 8.13253C0.614095 8.27778 0.445489 8.58683 0.341851 8.61155C0.238213 8.63628 0.106732 8.59301 0 8.61155C0.428474 5.70498 1.63191 3.58338 3.58712 2.16486C5.50984 0.783431 8.28023 0.0247236 11.6369 0.247236C15.4606 0.497563 18.658 1.65494 22.2451 2.18186C23.0077 2.29621 23.8074 2.37192 24.5437 2.25912C25.9946 2.03816 26.6876 1.12184 27.328 0.0448116C27.3404 0.0309046 27.328 0.00154523 27.3574 0H27.3636ZM6.50136 13.6644C6.13631 18.1193 7.69397 21.1573 9.97865 23.1305C10.4245 22.7511 10.7838 22.2806 11.0321 21.7506C11.2888 21.1619 11.36 20.4418 11.36 19.6275V4.95555C11.1827 4.9411 11.0065 4.91529 10.8325 4.87828C8.66694 6.9937 6.82929 9.68703 6.50136 13.6644ZM15.8412 5.73279V11.4625C15.8412 13.3956 15.9572 15.3364 15.654 17.0253C15.0693 20.2935 12.9826 22.0241 10.9547 23.8243C12.6562 25.3247 15.3183 26.1638 18.6317 25.9166V6.25663C17.7036 6.07429 16.794 5.87187 15.8566 5.70189C15.8566 5.67562 15.8334 5.70189 15.8412 5.73279Z" fill="white"/>
<path fill-rule="evenodd" clip-rule="evenodd" d="M31.7071 1.28418C32.5532 1.28418 33.0528 1.66276 33.3034 2.32103C33.7891 3.59739 33.4705 5.64327 32.4047 6.1022C31.6467 6.42979 30.6645 6.1022 30.2623 5.53047C29.9715 5.10244 29.8447 4.51062 29.8462 3.85544C29.8462 2.42765 30.2221 1.29036 31.7024 1.28418" fill="white"/>
<path fill-rule="evenodd" clip-rule="evenodd" d="M38.4683 8.85886C38.8194 8.26549 39.1164 7.61031 39.7243 7.26573C40.2889 6.94277 41.0794 7.13284 41.4784 7.43725C41.9085 7.76484 42.2008 8.25622 42.4251 8.74915C43.313 10.7471 43.5079 14.142 42.9046 16.6715C42.62 17.8706 42.0384 19.0033 41.166 19.4437C40.8444 19.5975 40.4845 19.6531 40.1314 19.6033C39.7783 19.5536 39.4478 19.4007 39.1814 19.164C38.7282 18.7128 38.5054 18.0576 38.3275 17.3638C38.2935 18.0854 38.3275 18.8719 38.3136 19.6121C37.0576 19.4792 35.8897 19.2536 34.4976 19.2567V18.685H35.2091C35.2462 13.3168 35.2091 7.88536 35.2261 2.49252H34.4976V1.93315C35.7866 1.89153 37.0713 1.76298 38.343 1.54839C38.4776 1.52366 38.459 1.53757 38.4683 1.70291C38.5379 2.85101 38.4683 4.03466 38.4683 5.17194V8.85886ZM38.4853 10.7518C38.4482 11.546 38.4683 12.4608 38.4683 13.4605C38.4683 14.3491 38.4528 15.2808 38.4853 16.1585C38.4937 16.5699 38.5403 16.9796 38.6245 17.3823C38.7034 17.7254 38.8859 18.1719 39.2293 18.1426C39.531 18.1132 39.6145 17.6188 39.6625 17.2603C39.8264 16.0488 39.7413 14.6056 39.7413 13.3524V10.7054C39.753 10.2867 39.7318 9.86766 39.6779 9.45222C39.6114 8.98866 39.5093 8.57299 39.1365 8.64407C38.5317 8.76151 38.5178 10.0533 38.4853 10.7518Z" fill="white"/>
<path fill-rule="evenodd" clip-rule="evenodd" d="M102.368 6.86084C102.407 8.31335 102.439 9.84622 102.446 11.2771H102.15C101.796 10.0718 101.355 8.75992 100.478 7.97804C100.037 7.58709 99.0318 7.15907 98.724 7.91623C98.4301 8.6363 98.6899 9.41664 99.0968 9.7705C99.2787 9.91275 99.4699 10.0428 99.6691 10.1599C100.229 10.5462 100.825 10.9078 101.313 11.3961C101.989 12.0904 102.443 12.9698 102.617 13.9225C102.815 15.0823 102.799 16.2685 102.569 17.4225C102.345 18.413 101.866 19.3494 100.911 19.6677C100.636 19.767 100.348 19.8258 100.056 19.8423C99.6381 19.8423 99.3334 19.6352 99.0488 19.4683C98.7642 19.3015 98.478 19.1392 98.1981 18.9414C97.9134 19.1392 97.6288 19.3803 97.3287 19.6213C97.1447 19.7681 97.0286 19.8979 96.6605 19.8423C96.6435 18.2569 96.5739 16.6437 96.5832 15.0814H96.8013C96.973 15.545 97.0982 16.0225 97.2823 16.4613C97.6092 17.3034 98.1364 18.0533 98.8183 18.6463C98.9922 18.7905 99.1847 18.9105 99.3907 19.0032C99.6217 19.12 99.8758 19.1839 100.135 19.1902C100.58 19.167 100.871 18.7189 100.908 18.2754C101.006 17.1737 100.367 16.7781 99.7124 16.3223C99.2592 16.0132 98.7982 15.6578 98.3326 15.3302C98.1723 15.236 98.0173 15.1328 97.8686 15.0212C97.5575 14.7101 97.3008 14.3492 97.1091 13.9534C96.5089 12.7821 96.4053 10.7811 96.8136 9.28993C97.0596 8.39679 97.4757 7.47275 98.2568 7.08799C98.7432 6.88007 99.288 6.85267 99.7928 7.01072C100.268 7.14516 100.566 7.37076 100.989 7.62881C101.351 7.38312 101.694 7.10653 102.057 6.8562L102.368 6.86084Z" fill="white"/>
<path fill-rule="evenodd" clip-rule="evenodd" d="M73.3033 18.8069C73.5514 18.826 73.8003 18.8317 74.0489 18.8239V19.4111H69.5786V18.8254H70.0426V10.9062C70.0599 10.473 70.0542 10.0392 70.0256 9.60662C69.9885 9.23113 69.8895 8.75983 69.5739 8.73666C69.1872 8.7073 69.0403 9.16777 68.9552 9.47991C68.8532 9.8604 68.7859 10.2493 68.7541 10.6419C68.6829 11.5057 68.7386 12.4869 68.7386 13.3523V18.8069C68.9049 18.8269 69.0725 18.8331 69.2398 18.8254V19.4126H64.7432V18.8254H65.4238V7.86824H64.7432V7.2177C66.1353 7.19143 67.3326 6.9751 68.7278 6.95346C68.7665 7.70908 68.7278 8.52959 68.7433 9.30993C69.1671 8.29472 69.6714 7.00755 70.9444 6.90865C72.5562 6.78349 73.0156 8.14483 73.1935 9.52472C73.3188 10.475 73.3033 11.5335 73.3033 12.5487V18.8069Z" fill="white"/>
<path fill-rule="evenodd" clip-rule="evenodd" d="M82.3476 14.1312H77.987C77.987 15.5822 77.9344 17.2958 78.4511 18.2817C78.5162 18.4238 78.6126 18.5493 78.7332 18.6488C78.8537 18.7484 78.9952 18.8194 79.1472 18.8565C79.2534 18.8957 79.3625 18.9267 79.4735 18.9492C80.1572 18.9941 80.7435 18.3868 81.0714 17.9418C81.4384 17.4104 81.7304 16.8312 81.9392 16.2204C82.0258 16.3502 82.1929 16.4228 82.2037 16.5603C82.1736 16.6803 82.1261 16.7954 82.063 16.9018C81.4226 18.3095 80.6785 19.847 78.7295 19.847C77.9261 19.8597 77.1427 19.5968 76.5098 19.1022C75.444 18.2369 74.8702 16.7736 74.6536 15.0429C74.42 13.2242 74.6536 11.1891 75.1486 9.80459C75.6436 8.42006 76.4402 7.03245 78.2423 6.90883C78.6238 6.88017 79.0072 6.93163 79.3676 7.05991C79.7281 7.18819 80.0577 7.39043 80.3351 7.65363C80.8456 8.10638 81.1983 8.73529 81.4844 9.34256C82.1032 10.6514 82.36 12.2445 82.3538 14.1328L82.3476 14.1312ZM79.1503 8.73683C79.1271 8.23773 79.0714 7.68144 78.7481 7.53001C78.1649 7.25187 78.0582 8.18055 78.018 8.68893C77.9004 10.2063 78.018 12.0884 77.9731 13.5239H79.1503C79.0961 12.0204 79.223 10.3037 79.1503 8.73374" fill="white"/>
<path fill-rule="evenodd" clip-rule="evenodd" d="M24.8454 7.12671V9.61916C25.3094 8.52514 25.7487 7.04945 27.3126 7.21788C27.5749 7.25362 27.8203 7.36782 28.0164 7.54547C29.0481 8.51741 29.1642 11.5445 28.1401 12.5628C28.025 12.6786 27.8866 12.7687 27.7341 12.8273C27.5817 12.8859 27.4185 12.9116 27.2554 12.9028C27.0587 12.8756 26.8695 12.8095 26.6987 12.7084C26.528 12.6073 26.3791 12.4732 26.2607 12.314C25.8632 11.8026 25.6992 10.9388 25.7023 10.1507C25.7023 9.9313 25.7565 9.66088 25.7828 9.42292C25.8091 9.18495 25.8849 8.92226 25.6745 8.80483C25.3883 8.97171 25.3172 9.35647 25.2383 9.6887C24.9923 10.7271 25.0078 12.0745 25.0078 13.4065V18.6711C25.3017 18.7051 25.6606 18.6711 25.9839 18.6866V19.2583H20.9272V18.6866H21.6109C21.645 15.1681 21.6109 11.5785 21.6249 8.04148H20.9272V7.42339C22.2312 7.32295 23.5321 7.21633 24.85 7.1298" fill="white"/>
<path fill-rule="evenodd" clip-rule="evenodd" d="M33.3655 7.12671C33.4382 10.9094 33.3779 14.825 33.3965 18.6696C33.6208 18.7036 33.91 18.6696 34.156 18.685V19.2567H29.3159V18.685H29.9996C30.0352 15.1712 30.0074 11.594 30.0166 8.05539H29.3159V7.4203C30.7591 7.41103 32.0275 7.23487 33.3655 7.12671Z" fill="white"/>
<path fill-rule="evenodd" clip-rule="evenodd" d="M49.0922 8.05535H48.3482V7.42026C49.7543 7.40481 50.95 7.17766 52.37 7.17457V18.685H53.1434V19.2567C51.7172 19.2567 50.4859 19.4545 49.233 19.6276C49.1989 18.8797 49.233 18.0622 49.2175 17.2912C48.6993 18.3435 48.2074 19.4916 46.8617 19.609C45.3071 19.7496 44.8632 18.5181 44.628 17.2077C44.3852 15.8587 44.4424 14.3027 44.4424 12.7173V8.05535H43.7603V7.42026C45.024 7.37699 46.4409 7.30591 47.6274 7.14212C47.7279 7.12821 47.7666 7.06022 47.782 7.2472C47.8486 8.05071 47.782 9.08602 47.782 9.837V16.7782C47.782 17.3313 47.7557 18.0514 48.3869 17.9263C48.9159 17.8196 49.0504 16.5881 49.0845 15.9715C49.1402 15.0212 49.0999 14.1018 49.0999 13.3447L49.0922 8.05535Z" fill="white"/>
<path fill-rule="evenodd" clip-rule="evenodd" d="M62.2604 18.6847H63.006V19.2564H58.5202V18.6847H58.9703C58.9966 16.2664 58.9873 13.5854 58.9858 11.0451C58.9858 10.6696 58.9858 10.2014 58.9548 9.80891C58.9239 9.41642 58.8496 8.92349 58.5202 8.89568C58.1319 8.85859 57.9741 9.29126 57.886 9.59258C57.5766 10.6062 57.6694 12.0649 57.6694 13.3707V18.6878H58.1628V19.2595H53.6538V18.6878H54.336V8.05508H53.6538V7.41999C55.046 7.39681 56.2479 7.17275 57.6756 7.17275V9.45196C58.0979 8.43211 58.5774 7.34582 59.7685 7.13412C60.2348 7.05251 60.7149 7.14667 61.1158 7.39835C61.7005 7.77384 61.9835 8.63454 62.1274 9.50604C62.2821 10.4332 62.2651 11.4608 62.2651 12.4636C62.2651 14.6362 62.2651 16.7717 62.2651 18.6785" fill="white"/>
<path fill-rule="evenodd" clip-rule="evenodd" d="M82.9338 7.21777H87.4011V7.86831H86.9525C87.5032 10.5972 88.0802 13.3013 88.6541 16.0055C88.8381 15.1247 89.016 14.2532 89.197 13.3523C89.2317 13.2313 89.2576 13.1078 89.2744 12.983C89.2466 12.768 89.1995 12.556 89.1336 12.3495C88.835 10.8645 88.5442 9.33319 88.2488 7.86831H87.661V7.21777H92.3015V7.86831H91.542C92.0679 10.5076 92.6248 13.1221 93.1538 15.749C93.5251 14.0909 93.901 12.181 94.2583 10.4118C94.3805 9.79367 94.5259 9.18794 94.4748 8.4895C94.447 8.10164 94.3202 7.8096 93.8561 7.8714V7.21777H95.9644V7.86831C95.857 7.87153 95.7514 7.89788 95.6551 7.94558C94.9698 8.29789 94.8182 9.64533 94.645 10.5045C94.0525 13.462 93.4539 16.5309 92.8615 19.4112H90.6263C90.2458 17.6326 89.8776 15.8448 89.511 14.0508C89.1073 15.8108 88.7608 17.6295 88.3803 19.4112H86.0213C85.2216 15.5481 84.3879 11.7267 83.5866 7.86831H82.9199V7.26568C82.9199 7.24095 82.9199 7.22086 82.9338 7.21777Z" fill="white"/>
<path fill-rule="evenodd" clip-rule="evenodd" d="M108.262 13.6815V14.5777C108.203 14.5885 108.133 14.5329 108.078 14.5004C107.727 14.2903 107.114 14.145 106.696 14.4247C105.626 15.1402 105.614 18.3388 107.238 18.3589C107.683 18.3589 107.976 18.1688 108.262 18.0143V18.9012C107.615 19.3215 106.546 19.2474 106.028 18.7931C104.979 17.8659 105.018 15.1 105.952 14.0214C106.228 13.6982 106.614 13.4875 107.035 13.4296C107.459 13.3934 107.885 13.4809 108.26 13.6815" fill="white"/>
<path fill-rule="evenodd" clip-rule="evenodd" d="M110.386 13.5222C110.641 13.508 110.896 13.5513 111.131 13.6489C112.717 14.3705 112.641 18.4205 111.053 19.1808C110.786 19.2924 110.495 19.3309 110.208 19.2923C109.922 19.2537 109.651 19.1395 109.424 18.9614C108.449 18.1408 108.412 15.3641 109.192 14.2376C109.321 14.0334 109.496 13.8623 109.704 13.7381C109.911 13.6138 110.145 13.5399 110.386 13.5222ZM110.061 14.423C109.082 14.933 109.021 18.062 110.152 18.4545C110.362 18.5045 110.581 18.4981 110.788 18.436C111.651 18.0837 111.832 15.8091 111.285 14.8557C111.192 14.6796 111.047 14.5368 110.869 14.4475C110.691 14.3583 110.49 14.327 110.293 14.3581C110.214 14.3715 110.136 14.3933 110.061 14.423Z" fill="white"/>
<path fill-rule="evenodd" clip-rule="evenodd" d="M115.614 14.7012C115.783 14.3813 115.911 13.9719 116.188 13.7262C116.29 13.6406 116.41 13.5788 116.539 13.5454C116.668 13.5121 116.803 13.5079 116.934 13.5332C117.065 13.5585 117.188 13.6127 117.296 13.6918C117.403 13.7709 117.491 13.8729 117.554 13.9904C117.838 14.573 117.738 15.5974 117.738 16.5122V19.2102H116.934V15.3085C116.934 14.9222 116.949 14.3273 116.624 14.3134C116.355 14.3041 116.176 14.6888 116.084 14.8712C116.016 14.9963 115.964 15.1323 115.911 15.2436C115.841 15.3606 115.784 15.4849 115.741 15.6144C115.717 15.9132 115.717 16.2134 115.741 16.5122V19.2102H114.916V15.3085C114.916 14.9083 114.951 14.3288 114.624 14.3134C114.248 14.2964 114.03 14.9778 113.911 15.2405C113.842 15.3579 113.785 15.4822 113.741 15.6113C113.717 15.9101 113.717 16.2103 113.741 16.5091V19.2071H112.918V13.6165H113.6C113.609 13.9595 113.637 14.284 113.631 14.6394C113.917 14.1975 114.047 13.5577 114.701 13.5098C115.356 13.4619 115.614 13.9935 115.617 14.7012" fill="white"/>
<path fill-rule="evenodd" clip-rule="evenodd" d="M103.764 16.9494C104.904 16.7392 105.001 18.8315 104.09 19.0694C103.512 19.224 103.143 18.6538 103.097 18.1871C103.072 17.997 103.089 17.8039 103.145 17.6207C103.202 17.4376 103.297 17.2687 103.425 17.1255C103.52 17.0378 103.638 16.9794 103.765 16.9571" fill="white"/>
<path d="M30.7128 25.2258L29.7553 22.4738H29.7383C29.763 22.8858 29.7754 23.269 29.7754 23.6234V25.2258H29.2866V21.9314H30.0461L30.9618 24.5583H30.9758L31.9193 21.9314H32.6819V25.2258H32.1622V23.5956C32.1622 23.4334 32.1622 23.2186 32.1746 22.9559C32.1869 22.6932 32.19 22.534 32.1962 22.4784H32.1777L31.1877 25.2258H30.7128Z" fill="white"/>
<path d="M35.0547 25.2258L34.9496 24.8781H34.931C34.8356 25.008 34.7111 25.1138 34.5675 25.1872C34.4201 25.2461 34.2621 25.274 34.1034 25.2691C33.9994 25.2752 33.8951 25.2608 33.7966 25.2266C33.6981 25.1923 33.6074 25.1391 33.5296 25.0697C33.4581 24.9957 33.4028 24.9076 33.3674 24.811C33.332 24.7144 33.3171 24.6115 33.3238 24.5088C33.3172 24.3955 33.3401 24.2824 33.3903 24.1806C33.4404 24.0788 33.5161 23.9917 33.61 23.9278C33.8757 23.778 34.1775 23.7042 34.4824 23.7146L34.914 23.7007V23.5678C34.9236 23.4387 34.8832 23.3109 34.8011 23.2108C34.755 23.1682 34.7005 23.1356 34.6411 23.1151C34.5817 23.0946 34.5187 23.0867 34.4561 23.0918C34.3312 23.0919 34.207 23.1111 34.088 23.149C33.9722 23.1856 33.859 23.23 33.7492 23.2819L33.5775 22.9033C33.7186 22.8324 33.8683 22.7805 34.023 22.7488C34.172 22.7131 34.3246 22.6945 34.4778 22.6932C34.734 22.6749 34.9884 22.7483 35.1955 22.9002C35.2818 22.9838 35.3484 23.0856 35.3904 23.1981C35.4324 23.3106 35.4488 23.4311 35.4384 23.5508V25.2304L35.0547 25.2258ZM34.2659 24.8642C34.4347 24.8742 34.6009 24.8189 34.7299 24.7097C34.7896 24.6513 34.8361 24.5808 34.8663 24.503C34.8964 24.4252 34.9095 24.3418 34.9047 24.2585V24.0421L34.5845 24.0545C34.3948 24.0487 34.2067 24.0918 34.0385 24.1797C33.9827 24.2168 33.9377 24.2679 33.9078 24.3278C33.878 24.3877 33.8644 24.4544 33.8683 24.5212C33.8655 24.5689 33.873 24.6166 33.8904 24.6612C33.9077 24.7057 33.9345 24.746 33.9689 24.7792C34.0529 24.8442 34.1586 24.8746 34.2643 24.8642H34.2659Z" fill="white"/>
<path d="M37.1008 24.8427C37.2327 24.8426 37.3637 24.8217 37.4891 24.7809V25.1795C37.4161 25.21 37.3398 25.2317 37.2617 25.2444C37.1668 25.262 37.0705 25.2708 36.974 25.2707C36.4728 25.2707 36.2222 25.0065 36.2222 24.478V23.1352H35.8804V22.9003L36.247 22.7072L36.4264 22.1787H36.7559V22.7334H37.4659V23.1352H36.7559V24.4687C36.7515 24.5199 36.7577 24.5715 36.7742 24.6201C36.7907 24.6688 36.8171 24.7135 36.8518 24.7515C36.9196 24.8134 37.0091 24.8462 37.1008 24.8427Z" fill="white"/>
<path d="M39.5479 25.2258L39.4427 24.8781H39.4242C39.3287 25.008 39.2043 25.1138 39.0607 25.1872C38.9132 25.246 38.7553 25.2738 38.5966 25.2691C38.4925 25.2752 38.3883 25.2608 38.2898 25.2266C38.1913 25.1923 38.1005 25.1391 38.0227 25.0697C37.9512 24.9957 37.896 24.9076 37.8606 24.811C37.8251 24.7144 37.8103 24.6115 37.817 24.5088C37.8104 24.3955 37.8333 24.2824 37.8834 24.1806C37.9336 24.0788 38.0093 23.9917 38.1032 23.9278C38.3688 23.778 38.6707 23.7042 38.9756 23.7146L39.4056 23.7007V23.5678C39.4157 23.4389 39.3758 23.3111 39.2942 23.2108C39.2479 23.1681 39.1932 23.1354 39.1335 23.1149C39.0739 23.0944 39.0106 23.0866 38.9477 23.0918C38.8233 23.092 38.6997 23.1112 38.5811 23.149C38.4654 23.1856 38.3522 23.23 38.2424 23.2819L38.0707 22.9033C38.2112 22.8324 38.3605 22.7805 38.5146 22.7488C38.6641 22.7131 38.8172 22.6945 38.9709 22.6932C39.2272 22.6749 39.4816 22.7483 39.6887 22.9002C39.775 22.9838 39.8416 23.0856 39.8836 23.1981C39.9256 23.3106 39.942 23.4311 39.9315 23.5508V25.2304L39.5479 25.2258ZM38.759 24.8642C38.9278 24.8742 39.0941 24.8189 39.2231 24.7097C39.2828 24.6513 39.3293 24.5808 39.3594 24.503C39.3896 24.4252 39.4027 24.3418 39.3979 24.2585V24.0421L39.0761 24.0545C38.8869 24.0489 38.6994 24.092 38.5316 24.1797C38.4759 24.2168 38.4309 24.2679 38.401 24.3278C38.3712 24.3877 38.3575 24.4544 38.3615 24.5212C38.3588 24.5687 38.3662 24.6163 38.3833 24.6608C38.4003 24.7053 38.4267 24.7456 38.4605 24.7792C38.5477 24.8462 38.6575 24.8766 38.7668 24.8642H38.759Z" fill="white"/>
<path d="M41.9241 25.2258V21.9314H42.4624V24.7638H43.8545V25.2274L41.9241 25.2258Z" fill="white"/>
<path d="M46.5833 23.9743C46.6053 24.3198 46.4947 24.6607 46.2739 24.9277C46.1619 25.0443 46.0259 25.1354 45.8753 25.1946C45.7247 25.2538 45.5631 25.2798 45.4015 25.2707C45.1851 25.2759 44.9713 25.2225 44.7828 25.1162C44.6035 25.0096 44.4602 24.852 44.3713 24.6634C44.2703 24.4491 44.2205 24.2142 44.2259 23.9773C44.205 23.6343 44.3156 23.2962 44.5353 23.0317C44.6489 22.9141 44.7868 22.8226 44.9392 22.7634C45.0917 22.7042 45.2552 22.6787 45.4185 22.6886C45.5781 22.6809 45.7374 22.7081 45.8854 22.7681C46.0333 22.8281 46.1665 22.9197 46.2755 23.0363C46.4933 23.2987 46.6033 23.6339 46.5833 23.9743ZM44.7673 23.9743C44.7673 24.5511 44.9802 24.8391 45.4061 24.838C45.832 24.837 46.0424 24.5491 46.0373 23.9743C46.0373 23.4056 45.8253 23.1213 45.4015 23.1213C45.3086 23.1133 45.2152 23.1295 45.1304 23.1682C45.0455 23.2069 44.9722 23.2669 44.9173 23.3423C44.8056 23.5334 44.7534 23.7534 44.7673 23.9743Z" fill="white"/>
<path d="M47.7032 23.9093L48.0033 23.5354L48.7566 22.7334H49.3676L48.3653 23.8042L49.4311 25.2258H48.8123L48.0111 24.1318L47.7203 24.3713V25.2258H47.1943V21.7197H47.7203V23.4303L47.694 23.9093H47.7032Z" fill="white"/>
<path d="M51.3938 25.2258L51.2871 24.8781H51.2701C51.1747 25.008 51.0502 25.1138 50.9066 25.1872C50.7591 25.2458 50.6012 25.2737 50.4425 25.2691C50.3384 25.2755 50.2341 25.2611 50.1356 25.2269C50.0371 25.1927 49.9463 25.1393 49.8687 25.0697C49.7969 24.9958 49.7414 24.9077 49.7057 24.8112C49.67 24.7146 49.6549 24.6116 49.6614 24.5088C49.6552 24.3956 49.6783 24.2827 49.7284 24.1809C49.7785 24.0792 49.854 23.992 49.9475 23.9278C50.2138 23.7781 50.5161 23.7044 50.8215 23.7146L51.2515 23.7007V23.5678C51.2616 23.4389 51.2218 23.3111 51.1402 23.2108C51.0935 23.1685 51.0387 23.1362 50.9792 23.1157C50.9196 23.0953 50.8565 23.0871 50.7937 23.0918C50.6687 23.0919 50.5446 23.1111 50.4255 23.149C50.3103 23.1859 50.1977 23.2303 50.0883 23.2819L49.9166 22.9033C50.057 22.8322 50.2063 22.7802 50.3606 22.7488C50.5101 22.713 50.6632 22.6944 50.8169 22.6932C51.0731 22.6749 51.3275 22.7483 51.5346 22.9002C51.6207 22.984 51.6871 23.0858 51.7291 23.1983C51.7711 23.3108 51.7876 23.4311 51.7775 23.5508V25.2304L51.3938 25.2258ZM50.6034 24.8642C50.7723 24.8749 50.9388 24.8195 51.0675 24.7097C51.1272 24.6513 51.1737 24.5808 51.2038 24.503C51.234 24.4252 51.2471 24.3418 51.2423 24.2585V24.0421L50.9221 24.0545C50.7328 24.0487 50.5453 24.0918 50.3776 24.1797C50.3218 24.2168 50.2768 24.2679 50.2469 24.3278C50.2171 24.3877 50.2035 24.4544 50.2074 24.5212C50.2043 24.5688 50.2115 24.6165 50.2286 24.661C50.2457 24.7056 50.2723 24.7459 50.3064 24.7792C50.3911 24.844 50.4972 24.8744 50.6034 24.8642Z" fill="white"/>
<path d="M53.0422 25.2258H52.5122V21.7197H53.0422V25.2258Z" fill="white"/>
<path d="M56.4813 25.2258L55.5253 22.4738H55.5068C55.5325 22.8858 55.5454 23.269 55.5454 23.6234V25.2258H55.0566V21.9314H55.8161L56.7319 24.5583H56.7458L57.6878 21.9314H58.4504V25.2258H57.9322V23.5956C57.9322 23.4334 57.9322 23.2186 57.9446 22.9559C57.957 22.6932 57.96 22.534 57.9662 22.4784H57.9477L56.9577 25.2258H56.4813Z" fill="white"/>
<path d="M60.3517 25.2708C60.1848 25.2805 60.0176 25.2553 59.861 25.1968C59.7044 25.1383 59.5617 25.0477 59.4422 24.9308C59.3291 24.8055 59.2419 24.6591 59.1856 24.4999C59.1294 24.3408 59.1051 24.1722 59.1143 24.0037C59.096 23.6567 59.2061 23.3152 59.4236 23.0441C59.5283 22.9273 59.6577 22.8353 59.8025 22.7749C59.9473 22.7145 60.1037 22.6872 60.2605 22.6949C60.4031 22.6887 60.5455 22.7121 60.6786 22.7637C60.8118 22.8153 60.9327 22.8939 61.0339 22.9947C61.2341 23.2208 61.3369 23.5168 61.32 23.8183V24.1057H59.6587C59.6531 24.309 59.7231 24.5072 59.8552 24.662C59.9238 24.7284 60.0057 24.7797 60.0956 24.8125C60.1854 24.8452 60.2811 24.8587 60.3765 24.852C60.5147 24.8529 60.6527 24.839 60.7879 24.8103C60.9289 24.7779 61.0662 24.7313 61.1978 24.6712V25.1008C61.0729 25.1609 60.9409 25.205 60.8049 25.2322C60.6555 25.2597 60.5037 25.2727 60.3517 25.2708ZM60.2543 23.0889C60.1799 23.0849 60.1055 23.0966 60.0359 23.1232C59.9664 23.1499 59.9032 23.1908 59.8505 23.2434C59.7395 23.3732 59.6753 23.5364 59.668 23.707H60.8003C60.8066 23.5389 60.7516 23.3742 60.6456 23.2434C60.5951 23.1915 60.534 23.1508 60.4666 23.1242C60.3991 23.0975 60.3267 23.0855 60.2543 23.0889Z" fill="white"/>
<path d="M64.1183 25.2258H63.5862V23.693C63.5977 23.5408 63.5568 23.3892 63.4702 23.2634C63.4236 23.2129 63.3661 23.1738 63.302 23.1492C63.2378 23.1245 63.1689 23.115 63.1005 23.1212C63.009 23.1137 62.9169 23.1276 62.8318 23.1619C62.7466 23.1963 62.6707 23.2501 62.6101 23.319C62.4882 23.518 62.4339 23.7511 62.4555 23.9835V25.2197H61.9233V22.7334H62.3394L62.4137 23.0594H62.4338C62.5119 22.9393 62.6231 22.8443 62.754 22.7859C62.8996 22.7196 63.0581 22.6864 63.2181 22.6886C63.8172 22.6886 64.1163 22.9925 64.1152 23.6003L64.1183 25.2258Z" fill="white"/>
<path d="M64.5992 26.3339C64.4644 26.3379 64.3299 26.3186 64.2017 26.2767V25.858C64.3025 25.8854 64.4065 25.8994 64.511 25.8997C64.7369 25.8997 64.8498 25.7714 64.8498 25.5165V22.7351H65.3788V25.5536C65.3865 25.6594 65.3726 25.7658 65.3381 25.8662C65.3035 25.9665 65.249 26.0589 65.1777 26.1377C65.0184 26.2768 64.8104 26.3474 64.5992 26.3339ZM64.8235 22.0706C64.8209 22.0306 64.8266 21.9905 64.8402 21.9528C64.8538 21.915 64.8749 21.8805 64.9024 21.8512C64.9438 21.8054 64.9985 21.7737 65.0588 21.7604C65.1191 21.7471 65.1821 21.7529 65.2389 21.7771C65.2958 21.8012 65.3437 21.8425 65.376 21.8951C65.4082 21.9477 65.4233 22.0091 65.419 22.0706C65.4209 22.1095 65.4151 22.1484 65.4018 22.185C65.3885 22.2216 65.3681 22.2552 65.3417 22.2839C65.2794 22.3338 65.2019 22.361 65.122 22.361C65.0422 22.361 64.9647 22.3338 64.9024 22.2839C64.8754 22.2555 64.8545 22.222 64.8409 22.1854C64.8274 22.1487 64.8214 22.1097 64.8235 22.0706Z" fill="white"/>
<path d="M67.7037 25.2257L67.5985 24.878H67.5799C67.4845 25.0079 67.36 25.1137 67.2164 25.1871C67.069 25.2459 66.911 25.2738 66.7524 25.269C66.6483 25.2751 66.544 25.2607 66.4455 25.2265C66.347 25.1923 66.2563 25.139 66.1785 25.0696C66.107 24.9956 66.0518 24.9075 66.0163 24.8109C65.9809 24.7143 65.9661 24.6114 65.9728 24.5087C65.9651 24.3954 65.987 24.2819 66.0363 24.1796C66.0857 24.0772 66.1608 23.9893 66.2543 23.9246C66.5199 23.7748 66.8218 23.701 67.1267 23.7114L67.5567 23.6975V23.5646C67.5668 23.4357 67.5269 23.3079 67.4453 23.2076C67.399 23.1649 67.3443 23.1322 67.2846 23.1117C67.225 23.0913 67.1617 23.0834 67.0989 23.0887C66.9744 23.0888 66.8508 23.1081 66.7323 23.1458C66.6165 23.1825 66.5033 23.2269 66.3935 23.2787L66.2218 22.9001C66.3628 22.8293 66.5126 22.7773 66.6673 22.7456C66.8163 22.71 66.9689 22.6913 67.1221 22.69C67.3783 22.6718 67.6327 22.7452 67.8398 22.897C67.9261 22.9806 67.9927 23.0824 68.0347 23.1949C68.0767 23.3075 68.0931 23.4279 68.0826 23.5476V25.2273L67.7037 25.2257ZM66.9148 24.8641C67.0836 24.8742 67.2498 24.8188 67.3788 24.7096C67.4385 24.6512 67.485 24.5808 67.5152 24.5029C67.5453 24.4251 67.5585 24.3417 67.5536 24.2584V24.0421L67.2334 24.0544C67.0437 24.0486 66.8556 24.0917 66.6874 24.1796C66.6317 24.2167 66.5866 24.2678 66.5568 24.3277C66.5269 24.3876 66.5133 24.4543 66.5172 24.5211C66.5145 24.5686 66.522 24.6162 66.539 24.6607C66.5561 24.7052 66.5824 24.7456 66.6162 24.7791C66.7026 24.8453 66.8112 24.8757 66.9194 24.8641H66.9148Z" fill="white"/>
<path d="M71.017 25.2258H70.4849V23.693C70.4964 23.5408 70.4554 23.3892 70.3688 23.2634C70.3223 23.2129 70.2647 23.1738 70.2006 23.1492C70.1365 23.1245 70.0676 23.115 69.9992 23.1212C69.9076 23.1137 69.8156 23.1276 69.7305 23.1619C69.6453 23.1963 69.5694 23.2501 69.5088 23.319C69.3879 23.5185 69.3337 23.7512 69.3541 23.9835V25.2197H68.822V22.7334H69.2397L69.3139 23.0594H69.3402C69.4183 22.9393 69.5295 22.8443 69.6604 22.7859C69.806 22.7196 69.9645 22.6864 70.1245 22.6886C70.7236 22.6886 71.0226 22.9925 71.0216 23.6003L71.017 25.2258Z" fill="white"/>
<path d="M73.8617 22.7336V23.0241L73.4348 23.1029C73.477 23.1624 73.5099 23.2281 73.5323 23.2976C73.5579 23.3759 73.5709 23.4578 73.5709 23.5402C73.576 23.6548 73.5547 23.769 73.5086 23.874C73.4624 23.979 73.3927 24.0721 73.3049 24.1459C73.0941 24.3035 72.8345 24.3817 72.5717 24.3669C72.499 24.3675 72.4265 24.3613 72.3551 24.3483C72.3076 24.3716 72.2668 24.4068 72.2367 24.4503C72.2067 24.4939 72.1883 24.5444 72.1834 24.5971C72.1826 24.624 72.1898 24.6506 72.2041 24.6734C72.2184 24.6963 72.2392 24.7143 72.2638 24.7254C72.3576 24.7606 72.4578 24.7754 72.5577 24.7686H72.9924C73.2155 24.7536 73.4371 24.8152 73.6204 24.9432C73.6927 25.0055 73.7496 25.0837 73.7867 25.1716C73.8237 25.2596 73.8399 25.3549 73.8339 25.4501C73.8387 25.5802 73.8089 25.7092 73.7475 25.8241C73.6861 25.9389 73.5953 26.0354 73.4843 26.1037C73.1767 26.2756 72.826 26.3556 72.4742 26.3339C72.2043 26.35 71.9355 26.2872 71.7008 26.1531C71.6148 26.0987 71.5447 26.0227 71.4974 25.9326C71.4502 25.8426 71.4275 25.7417 71.4316 25.6401C71.4281 25.4974 71.4802 25.3589 71.577 25.2538C71.6877 25.1413 71.8302 25.0652 71.9854 25.0359C71.9139 25.006 71.8531 24.9555 71.8106 24.8907C71.7638 24.8252 71.7395 24.7463 71.7412 24.6659C71.7428 24.5854 71.7704 24.5077 71.8199 24.4441C71.887 24.3676 71.9665 24.3029 72.055 24.2525C71.9271 24.1946 71.8194 24.1 71.7456 23.9806C71.6645 23.8482 71.6232 23.6953 71.6265 23.5402C71.6197 23.423 71.6391 23.3058 71.6832 23.197C71.7274 23.0882 71.7952 22.9906 71.8818 22.9113C72.09 22.751 72.3495 22.6719 72.6119 22.6887C72.6858 22.689 72.7597 22.6936 72.8331 22.7027C72.8919 22.7095 72.9503 22.7199 73.0079 22.7336H73.8617ZM71.9019 25.6123C71.9005 25.6664 71.9142 25.7198 71.9416 25.7664C71.9689 25.8131 72.0087 25.8513 72.0566 25.8766C72.19 25.9455 72.3396 25.9776 72.4897 25.9693C72.7117 25.9831 72.9336 25.9406 73.1347 25.8456C73.1972 25.816 73.2502 25.7694 73.2877 25.7113C73.3251 25.6531 73.3455 25.5857 73.3466 25.5165C73.3505 25.471 73.3417 25.4252 73.3212 25.3843C73.3008 25.3435 73.2694 25.309 73.2306 25.2847C73.094 25.2288 72.9462 25.2055 72.799 25.2167H72.3969C72.2676 25.2099 72.1398 25.2475 72.0349 25.3234C71.9917 25.3578 71.9572 25.4019 71.9341 25.4521C71.911 25.5022 71.8999 25.5571 71.9019 25.6123ZM72.1293 23.5402C72.1204 23.6714 72.1638 23.8008 72.2499 23.9002C72.2956 23.9443 72.35 23.9784 72.4097 24.0002C72.4694 24.0221 72.533 24.0312 72.5964 24.0269C72.9058 24.0269 73.0605 23.8631 73.0605 23.5355C73.0694 23.4009 73.0293 23.2675 72.9475 23.16C72.903 23.114 72.8489 23.0783 72.789 23.0556C72.7291 23.0329 72.6649 23.0237 72.601 23.0287C72.537 23.024 72.4726 23.0334 72.4125 23.056C72.3524 23.0787 72.298 23.1142 72.253 23.16C72.1645 23.2662 72.1202 23.4023 72.1293 23.5402Z" fill="white"/>
<path d="M74.8347 23.9093L75.1348 23.5354L75.8881 22.7334H76.5068L75.5029 23.8042L76.5687 25.2258H75.9499L75.1487 24.1318L74.8579 24.3713V25.2258H74.3335V21.7197H74.8579V23.4303L74.8316 23.9093H74.8347Z" fill="white"/>
<path d="M78.5208 25.2258L78.4141 24.8781H78.397C78.3016 25.008 78.1771 25.1138 78.0335 25.1872C77.8861 25.2458 77.7281 25.2737 77.5695 25.2691C77.4654 25.2753 77.3611 25.2609 77.2626 25.2267C77.1641 25.1925 77.0734 25.1391 76.9956 25.0697C76.9238 24.9958 76.8683 24.9077 76.8326 24.8111C76.7969 24.7146 76.7818 24.6116 76.7883 24.5088C76.7822 24.3956 76.8053 24.2827 76.8554 24.1809C76.9055 24.0792 76.9809 23.992 77.0745 23.9278C77.3408 23.7781 77.6431 23.7044 77.9485 23.7146L78.3785 23.7006V23.5678C78.3886 23.4389 78.3487 23.3111 78.2671 23.2108C78.2205 23.1685 78.1657 23.1362 78.1061 23.1157C78.0465 23.0953 77.9834 23.0871 77.9206 23.0918C77.7962 23.0918 77.6725 23.1111 77.554 23.149C77.4382 23.1856 77.3251 23.23 77.2153 23.2819L77.0436 22.9033C77.1841 22.8324 77.3333 22.7805 77.4875 22.7488C77.637 22.713 77.7901 22.6944 77.9438 22.6932C78.2001 22.6749 78.4545 22.7483 78.6615 22.9002C78.7479 22.9838 78.8145 23.0856 78.8565 23.1981C78.8985 23.3106 78.9149 23.4311 78.9044 23.5508V25.2304L78.5208 25.2258ZM77.7319 24.8642C77.9008 24.8749 78.0672 24.8195 78.196 24.7097C78.2559 24.6515 78.3026 24.5811 78.3327 24.5032C78.3629 24.4253 78.3759 24.3418 78.3707 24.2585V24.0421L78.0505 24.0545C77.8613 24.0487 77.6737 24.0918 77.5061 24.1797C77.4503 24.2168 77.4053 24.2679 77.3754 24.3278C77.3456 24.3877 77.332 24.4544 77.3359 24.5212C77.3328 24.5688 77.34 24.6165 77.3571 24.661C77.3742 24.7056 77.4008 24.7459 77.4349 24.7792C77.5209 24.845 77.6288 24.8754 77.7365 24.8642H77.7319Z" fill="white"/>
<path d="M81.4026 25.2259L81.3284 24.8983H81.3052C81.2293 25.0162 81.1222 25.1108 80.9958 25.1718C80.8505 25.2391 80.6919 25.2729 80.5317 25.2707C80.4097 25.2802 80.287 25.2651 80.1708 25.2264C80.0547 25.1876 79.9476 25.126 79.8558 25.0451C79.7755 24.9515 79.7145 24.843 79.6762 24.7257C79.638 24.6085 79.6233 24.485 79.633 24.3621V22.7334H80.1667V24.2694C80.1551 24.4218 80.1966 24.5736 80.2842 24.6989C80.3305 24.7495 80.3877 24.7887 80.4516 24.8136C80.5154 24.8386 80.5841 24.8485 80.6524 24.8426C80.744 24.85 80.8361 24.8359 80.9213 24.8012C81.0065 24.7666 81.0823 24.7125 81.1427 24.6433C81.264 24.4423 81.3182 24.208 81.2974 23.9742V22.738H81.8295V25.2305L81.4026 25.2259Z" fill="white"/>
<path d="M83.8328 25.2258V21.9314H84.3705V25.2258H83.8328Z" fill="white"/>
<path d="M87.3794 25.2258H86.8473V23.693C86.8589 23.5408 86.8179 23.3892 86.7313 23.2634C86.685 23.213 86.6277 23.174 86.5639 23.1494C86.5 23.1247 86.4313 23.1151 86.3632 23.1212C86.2714 23.1134 86.1791 23.1272 86.0936 23.1616C86.0082 23.1959 85.932 23.2499 85.8713 23.319C85.7504 23.5185 85.6962 23.7512 85.7166 23.9835V25.2197H85.186V22.7334H85.6021L85.6764 23.0594H85.7027C85.7807 22.9393 85.8919 22.8443 86.0229 22.7859C86.1685 22.7196 86.3269 22.6864 86.4869 22.6886C87.0861 22.6886 87.3851 22.9925 87.3841 23.6003L87.3794 25.2258Z" fill="white"/>
<path d="M88.9586 25.2707C88.8189 25.277 88.6797 25.2495 88.5528 25.1906C88.426 25.1317 88.3153 25.0431 88.23 24.9323C88.0581 24.6448 87.9673 24.3161 87.9673 23.9812C87.9673 23.6463 88.0581 23.3176 88.23 23.0301C88.316 22.9183 88.4277 22.8289 88.5556 22.7695C88.6835 22.71 88.8239 22.6823 88.9648 22.6886C89.1102 22.6807 89.2552 22.7099 89.3861 22.7735C89.5171 22.837 89.6297 22.9327 89.7135 23.0517H89.7398C89.7178 22.911 89.7049 22.7691 89.7011 22.6268V21.7197H90.2347V25.2258H89.8186L89.7258 24.8983H89.7011C89.6201 25.0191 89.5091 25.1169 89.379 25.1822C89.2488 25.2474 89.104 25.2779 88.9586 25.2707ZM89.1009 24.8426C89.1889 24.8504 89.2775 24.8379 89.3598 24.806C89.4422 24.7741 89.5161 24.7238 89.5758 24.6588C89.6908 24.482 89.7451 24.2726 89.7305 24.0623V23.9881C89.7503 23.7544 89.6962 23.5204 89.5758 23.319C89.5173 23.2505 89.4433 23.1968 89.3599 23.1624C89.2765 23.128 89.1862 23.1139 89.0963 23.1212C89.0109 23.1179 88.9261 23.1369 88.8504 23.1765C88.7746 23.2161 88.7106 23.2748 88.6647 23.3469C88.5515 23.5426 88.4978 23.767 88.51 23.9928C88.4959 24.2131 88.5464 24.4327 88.6554 24.6248C88.7039 24.697 88.7707 24.7552 88.8489 24.7935C88.9271 24.8317 89.014 24.8487 89.1009 24.8426Z" fill="white"/>
<path d="M93.2159 23.9742C93.2379 24.3198 93.1272 24.6607 92.9065 24.9276C92.7945 25.0443 92.6585 25.1354 92.5079 25.1946C92.3573 25.2538 92.1957 25.2798 92.0341 25.2707C91.8176 25.2759 91.6038 25.2225 91.4153 25.1162C91.236 25.0092 91.0923 24.8517 91.0023 24.6634C90.9024 24.4487 90.8532 24.214 90.8585 23.9773C90.8375 23.6343 90.9481 23.2961 91.1678 23.0317C91.2813 22.9153 91.4185 22.8247 91.5701 22.766C91.7217 22.7074 91.8842 22.682 92.0465 22.6917C92.206 22.6841 92.3653 22.7113 92.5132 22.7713C92.6612 22.8314 92.7943 22.9228 92.9034 23.0394C93.1221 23.3003 93.2338 23.6344 93.2159 23.9742ZM91.3999 23.9742C91.3999 24.5506 91.6118 24.838 92.0387 24.838C92.4657 24.838 92.6698 24.5506 92.6698 23.9742C92.6698 23.3979 92.4579 23.1213 92.0341 23.1213C91.9412 23.1133 91.8478 23.1295 91.7629 23.1682C91.6781 23.2069 91.6047 23.2669 91.5499 23.3422C91.4355 23.5325 91.3805 23.7526 91.3921 23.9742H91.3999Z" fill="white"/>
<path d="M96.0108 25.2258H95.4787V23.693C95.4902 23.5408 95.4493 23.3892 95.3627 23.2634C95.3161 23.2129 95.2586 23.1738 95.1945 23.1492C95.1303 23.1245 95.0614 23.115 94.993 23.1212C94.9015 23.1137 94.8094 23.1276 94.7243 23.1619C94.6391 23.1963 94.5632 23.2501 94.5026 23.319C94.3807 23.518 94.3264 23.7511 94.348 23.9835V25.2197H93.8174V22.7334H94.2335L94.3077 23.0594H94.334C94.4121 22.9393 94.5233 22.8443 94.6542 22.7859C94.7998 22.7196 94.9583 22.6864 95.1183 22.6886C95.7174 22.6886 96.0165 22.9925 96.0155 23.6003L96.0108 25.2258Z" fill="white"/>
<path d="M97.8376 25.2708C97.6706 25.2805 97.5035 25.2553 97.3468 25.1968C97.1902 25.1383 97.0476 25.0477 96.928 24.9308C96.8149 24.8055 96.7277 24.6591 96.6715 24.4999C96.6152 24.3408 96.5909 24.1722 96.6001 24.0037C96.5818 23.6567 96.6919 23.3152 96.9095 23.0441C97.0141 22.9273 97.1436 22.8353 97.2883 22.7749C97.4331 22.7145 97.5896 22.6872 97.7463 22.6949C97.889 22.6887 98.0314 22.7121 98.1645 22.7637C98.2976 22.8153 98.4186 22.8939 98.5197 22.9947C98.7199 23.2208 98.8228 23.5168 98.8059 23.8183V24.1057H97.1446C97.1389 24.309 97.2089 24.5072 97.341 24.662C97.409 24.7276 97.4899 24.7785 97.5785 24.8112C97.6672 24.8439 97.7618 24.8578 97.8561 24.852C97.9944 24.8529 98.1323 24.839 98.2676 24.8103C98.4086 24.7779 98.5459 24.7313 98.6775 24.6712V25.1008C98.5526 25.1609 98.4206 25.205 98.2846 25.2322C98.1372 25.2593 97.9875 25.2723 97.8376 25.2708ZM97.7401 23.0889C97.6657 23.0848 97.5913 23.0965 97.5217 23.1231C97.4522 23.1497 97.389 23.1907 97.3364 23.2434C97.2254 23.3732 97.1611 23.5364 97.1539 23.707H98.2862C98.2924 23.5389 98.2375 23.3742 98.1315 23.2434C98.0809 23.1915 98.0199 23.1508 97.9524 23.1242C97.8849 23.0975 97.8126 23.0855 97.7401 23.0889Z" fill="white"/>
<path d="M101.085 24.5151C101.09 24.6232 101.069 24.731 101.023 24.8289C100.977 24.9268 100.907 25.0117 100.82 25.076C100.593 25.2196 100.326 25.2877 100.057 25.2707C99.782 25.2811 99.5079 25.2282 99.2561 25.1162V24.6526C99.5109 24.7788 99.7902 24.8478 100.074 24.8551C100.401 24.8551 100.565 24.7577 100.565 24.5599C100.566 24.5036 100.547 24.4488 100.511 24.4054C100.459 24.3526 100.399 24.3087 100.333 24.2756C100.221 24.2166 100.105 24.1649 99.9863 24.1211C99.7708 24.0525 99.5725 23.9387 99.4046 23.7873C99.2993 23.6683 99.244 23.5134 99.25 23.3547C99.2466 23.2565 99.2686 23.1592 99.3139 23.0721C99.3591 22.9849 99.4261 22.9109 99.5083 22.8571C99.7193 22.7292 99.9641 22.6678 100.211 22.6809C100.498 22.6793 100.782 22.7399 101.043 22.8586L100.871 23.2573C100.658 23.1594 100.428 23.1028 100.194 23.0904C99.9136 23.0904 99.7728 23.1708 99.7728 23.3299C99.7735 23.3694 99.7839 23.408 99.803 23.4425C99.8222 23.477 99.8495 23.5062 99.8826 23.5277C100.033 23.6194 100.194 23.694 100.361 23.7502C100.518 23.8064 100.668 23.88 100.809 23.9697C100.896 24.0283 100.967 24.1067 101.016 24.1984C101.065 24.2967 101.088 24.4055 101.085 24.5151Z" fill="white"/>
<path d="M101.626 22.0707C101.623 22.0307 101.629 21.9906 101.643 21.9528C101.656 21.9151 101.677 21.8805 101.705 21.8513C101.735 21.8245 101.77 21.804 101.808 21.791C101.846 21.778 101.886 21.7727 101.926 21.7756C101.966 21.7711 102.006 21.7757 102.044 21.789C102.082 21.8023 102.116 21.8239 102.145 21.8522C102.173 21.8806 102.195 21.9149 102.208 21.9527C102.221 21.9905 102.226 22.0309 102.221 22.0707C102.224 22.1096 102.218 22.1486 102.205 22.1853C102.191 22.2219 102.171 22.2555 102.144 22.2839C102.115 22.3108 102.08 22.3315 102.043 22.3448C102.005 22.3581 101.966 22.3636 101.926 22.3612C101.886 22.3638 101.845 22.3583 101.807 22.345C101.769 22.3317 101.735 22.311 101.705 22.2839C101.678 22.2556 101.657 22.2221 101.643 22.1854C101.63 22.1488 101.624 22.1097 101.626 22.0707ZM102.189 25.223H101.658V22.7336H102.187L102.189 25.223Z" fill="white"/>
<path d="M104.508 25.2259L104.402 24.8782H104.384C104.288 25.0081 104.164 25.1139 104.02 25.1873C103.873 25.2462 103.715 25.2741 103.556 25.2692C103.452 25.2753 103.348 25.2609 103.249 25.2267C103.151 25.1924 103.06 25.1391 102.982 25.0698C102.911 24.9958 102.856 24.9077 102.82 24.8111C102.785 24.7145 102.77 24.6116 102.777 24.5089C102.77 24.3956 102.793 24.2825 102.843 24.1807C102.893 24.0789 102.969 23.9918 103.063 23.9279C103.329 23.7781 103.63 23.7043 103.935 23.7147L104.367 23.7008V23.5679C104.377 23.4387 104.337 23.3107 104.254 23.2109C104.208 23.1683 104.153 23.1357 104.094 23.1152C104.035 23.0947 103.972 23.0868 103.909 23.0919C103.784 23.092 103.66 23.1112 103.541 23.1491C103.425 23.1858 103.312 23.2301 103.202 23.282L103.03 22.9034C103.171 22.8325 103.321 22.7806 103.476 22.7489C103.625 22.7132 103.777 22.6946 103.931 22.6933C104.187 22.6747 104.442 22.7481 104.65 22.9003C104.736 22.9843 104.802 23.0861 104.844 23.1986C104.885 23.3111 104.902 23.4314 104.891 23.5509V25.2305L104.508 25.2259ZM103.719 24.8643C103.888 24.8743 104.054 24.819 104.183 24.7098C104.243 24.6514 104.289 24.5809 104.319 24.5031C104.349 24.4253 104.362 24.3419 104.358 24.2586V24.0422L104.037 24.0546C103.848 24.0486 103.661 24.0917 103.493 24.1798C103.437 24.2167 103.392 24.2677 103.362 24.3277C103.332 24.3876 103.318 24.4544 103.323 24.5213C103.32 24.5689 103.327 24.6166 103.344 24.6611C103.361 24.7057 103.388 24.746 103.422 24.7793C103.506 24.844 103.611 24.8744 103.717 24.8643H103.719Z" fill="white"/>
</svg>
